<?xml version="1.0" standalone="no"?><!DOCTYPE svg PUBLIC "-//W3C//DTD SVG 1.1//EN" "http://www.w3.org/Graphics/SVG/1.1/DTD/svg11.dtd"><svg t="1629379493352" class="icon" viewBox="0 0 1024 1024" version="1.1" xmlns="http://www.w3.org/2000/svg" p-id="1226" xmlns:xlink="http://www.w3.org/1999/xlink" width="200" height="200"><defs><style type="text/css"></style></defs><path d="M128 170.666667c-25.6 0-42.666667 17.066667-42.666667 42.666666v554.666667c0 46.933333 38.4 85.333333 85.333334 85.333333h281.6c8.533333 25.6 34.133333 42.666667 59.733333 42.666667 25.6 0 51.2-17.066667 59.733333-42.666667H853.333333c46.933333 0 85.333333-38.4 85.333334-85.333333V213.333333c0-25.6-17.066667-42.666667-42.666667-42.666666h-213.333333c-68.266667 0-132.266667 34.133333-170.666667 85.333333-38.4-51.2-102.4-85.333333-170.666667-85.333333H128z m576 128h42.666667c12.8 0 21.333333 8.533333 21.333333 21.333333v42.666667c0 12.8-8.533333 21.333333-21.333333 21.333333h-42.666667c-12.8 0-21.333333-8.533333-21.333333-21.333333v-42.666667c0-12.8 8.533333-21.333333 21.333333-21.333333z m21.333333 170.666666c25.6 0 42.666667 17.066667 42.666667 42.666667v128c0 25.6-17.066667 42.666667-42.666667 42.666667s-42.666667-17.066667-42.666666-42.666667v-128c0-25.6 17.066667-42.666667 42.666666-42.666667z" p-id="1227"></path></svg>